<svg xmlns="http://www.w3.org/2000/svg" viewBox="0 0 1200 700"><defs><linearGradient id="bg" x1="0" y1="0" x2="1" y2="1"><stop stop-color="#050713"/><stop offset=".55" stop-color="#111334"/><stop offset="1" stop-color="#240b40"/></linearGradient><linearGradient id="gift" x1="0" y1="0" x2="1" y2="1"><stop stop-color="#cf7dff"/><stop offset=".45" stop-color="#6d4aff"/><stop offset="1" stop-color="#27d7f2"/></linearGradient><linearGradient id="cyan" x1="0" y1="0" x2="1" y2="1"><stop stop-color="#62efff"/><stop offset="1" stop-color="#4d73ff"/></linearGradient></defs><rect width="1200" height="700" rx="42" fill="url(#bg)"/><circle cx="850" cy="250" r="210" fill="#6d4aff" opacity=".15"/><circle cx="930" cy="470" r="170" fill="#22d3ee" opacity=".11"/><g opacity=".9"><rect x="755" y="105" width="150" height="230" rx="25" fill="url(#cyan)" transform="rotate(12 830 220)"/><rect x="965" y="150" width="145" height="210" rx="24" fill="#1f2937" stroke="#79a7ff" stroke-width="3" transform="rotate(22 1035 255)"/><rect x="680" y="375" width="145" height="205" rx="24" fill="#14213b" stroke="#b76cff" stroke-width="3" transform="rotate(-18 750 478)"/></g><g transform="translate(465 215)"><ellipse cx="145" cy="330" rx="190" ry="45" fill="#6d4aff" opacity=".22"/><rect x="20" y="90" width="250" height="210" rx="45" fill="url(#gift)"/><path d="M145 90v210M45 142h200" stroke="#fff" stroke-width="15" stroke-linecap="round" opacity=".88"/><path d="M92 91c-28-65 27-82 53-17 27-65 82-48 53 17" fill="none" stroke="#fff" stroke-width="15" stroke-linecap="round"/><text x="145" y="255" text-anchor="middle" font-family="Arial,sans-serif" font-size="110" font-weight="900" fill="#fff">G</text></g><g transform="translate(420 425)"><path d="M10 30c25-35 75-35 100 0l20 42c8 17-8 36-27 31l-35-9-35 9c-19 5-35-14-27-31z" fill="#121827" stroke="#90b9ff" stroke-width="5"/><circle cx="88" cy="55" r="8" fill="#22d3ee"/><circle cx="108" cy="75" r="8" fill="#b76cff"/><path d="M43 50h26M56 37v26" stroke="#c4b5fd" stroke-width="7" stroke-linecap="round"/></g><g fill="#fff"><circle cx="315" cy="155" r="6"/><circle cx="380" cy="120" r="4"/><circle cx="1020" cy="470" r="5"/><circle cx="1115" cy="395" r="4"/></g></svg>